<svg width="90" height="56" viewBox="0 0 90 56" fill="none" xmlns="http://www.w3.org/2000/svg">
<path d="M81.7202 46.4805V48.5127H84.5851V55.9148H87.1057V48.5127H89.9982V46.4805H81.7202Z" fill="white"/>
<path d="M81.2411 55.9148L79.2302 52.8327C80.3459 52.2675 80.9519 51.2177 80.9519 49.7912C80.9519 47.6917 79.4919 46.4805 76.93 46.4805H72.5913V55.9148H75.112V53.3039H76.93H76.9851L78.3901 55.9148H81.2412L81.2411 55.9148ZM75.1119 48.4454H76.9438C77.963 48.4454 78.5553 48.9433 78.5553 49.8719C78.5553 50.8275 77.963 51.3389 76.9438 51.3389H75.1119V48.4453V48.4454Z" fill="white"/>
<path d="M63.291 46.4805V55.9148H71.0457V53.9499H65.8117V52.1779L70.412 52.1644V50.2107H65.8117V48.4455H70.9079V46.4805H63.291Z" fill="white"/>
<path d="M58.1705 46.4805H53.9282V55.9148H56.4489V53.3039H58.1706C60.6361 53.3039 62.0548 52.0119 62.0548 49.7913C62.0548 47.6918 60.6361 46.4806 58.1706 46.4806L58.1705 46.4805ZM58.0466 51.3389H56.4489V48.4454H58.0466C59.0658 48.4454 59.6581 48.9433 59.6581 49.8719C59.6581 50.8275 59.0659 51.3389 58.0466 51.3389V51.3389Z" fill="white"/>
<path d="M43.0997 46.4805L46.3091 51.1102L42.8794 55.9148H45.827L47.838 52.9944L49.8903 55.9148H52.9067L49.4495 50.989L52.6312 46.4805H49.656L47.838 49.1587L46.0335 46.4805H43.0997Z" fill="white"/>
<path d="M34.4619 46.4805V55.9148H42.2166V53.9499H36.9826V52.1779L41.5829 52.1644V50.2107H36.9826V48.4455H42.0788V46.4805H34.4619Z" fill="white"/>
<path d="M27.9224 46.4258C25.1264 46.4258 22.895 48.5387 22.895 51.1901C22.895 53.8548 25.1264 55.9948 27.9224 55.9948C30.7185 55.9948 32.9498 53.8548 32.9498 51.1901C32.9498 48.5387 30.7185 46.4258 27.9224 46.4258ZM27.9362 47.2602C30.1538 47.2602 31.9858 49.0098 31.9858 51.19C31.9858 53.3837 30.1539 55.1602 27.9362 55.1602C25.7049 55.1602 23.8592 53.3837 23.8592 51.19C23.8592 49.0097 25.7049 47.2602 27.9362 47.2602Z" fill="white"/>
<path d="M16.1152 46.5117V55.9192H17.0656V51.801H21.5972V50.9665H17.0656V47.3462H22.1482V46.5117H16.1152Z" fill="white"/>
<path d="M12.1385 46.5117V54.4791L6.16071 46.5117H5.15527V55.9192H6.1056V47.9517L12.0697 55.9192H13.0751V46.5117H12.1385Z" fill="white"/>
<path d="M1.14288 50.3358L1.17287 55.9192H2.1171L2.09263 50.3413C1.9434 50.3686 1.7893 50.3831 1.63202 50.3831C1.46458 50.3831 1.30097 50.3667 1.14296 50.3359L1.14288 50.3358ZM1.62991 46.5117C2.53025 46.5117 3.26006 47.2248 3.26006 48.1043C3.26006 48.984 2.53025 49.6971 1.62991 49.6971C0.729813 49.6971 0 48.984 0 48.1043C0 47.2248 0.729813 46.5117 1.62991 46.5117Z" fill="white"/>
<path d="M59.8262 10.1628C56.9531 10.1628 54.6242 7.8876 54.6242 5.08172C54.6242 2.27512 56.9531 0 59.8262 0C62.6969 0 65.0257 2.2752 65.0257 5.08172C65.0257 7.8876 62.6969 10.1628 59.8262 10.1628ZM44.9237 24.9257C42.0527 24.9257 39.7239 22.6508 39.7239 19.8442C39.7239 17.0376 42.0528 14.7627 44.9237 14.7627C47.7969 14.7627 50.1254 17.0375 50.1254 19.8442C50.1254 22.6509 47.7969 24.9257 44.9237 24.9257ZM30.0223 10.1628C27.1503 10.1628 24.8218 7.8876 24.8218 5.08172C24.8218 2.27512 27.1503 0 30.0223 0C32.8947 0 35.2233 2.2752 35.2233 5.08172C35.2233 7.8876 32.8948 10.1628 30.0223 10.1628ZM30.0223 39.6884C27.1503 39.6884 24.8218 37.4132 24.8218 34.6069C24.8218 31.8003 27.1503 29.5254 30.0223 29.5254C32.8947 29.5254 35.2233 31.8003 35.2233 34.6069C35.2233 37.4132 32.8948 39.6884 30.0223 39.6884ZM59.8261 39.6884C56.953 39.6884 54.6241 37.4132 54.6241 34.6069C54.6241 31.8003 56.953 29.5254 59.8261 29.5254C62.6969 29.5254 65.0256 31.8003 65.0256 34.6069C65.0256 37.4132 62.6968 39.6884 59.8261 39.6884Z" fill="white"/>
<path d="M49.3183 8.89567C49.3183 9.35916 48.9338 9.7349 48.4594 9.7349C47.9851 9.7349 47.6005 9.35916 47.6005 8.89567C47.6005 2.93756 46.1207 1.67853 39.9531 1.67853V1.67845C39.4787 1.67845 39.0942 1.30271 39.0942 0.839223C39.0942 0.375812 39.4787 0 39.9531 0C41.18 0 43.8432 0 45.07 0C49.3183 0 49.3183 0 49.3183 3.73612V8.89575H49.3182L49.3183 8.89567ZM49.4714 35.0947C49.4758 35.0532 49.4802 35.0117 49.4823 34.9703C49.6194 33.0479 50.4574 31.2377 51.8416 29.8659L54.4491 27.2835C56.2009 25.5481 58.8752 25.7918 58.8752 23.0906C58.8752 21.5114 57.565 20.2313 55.9488 20.2313C53.2071 20.2313 53.3895 22.861 51.6501 24.585L49.0427 27.1673C47.6476 28.5495 45.7879 29.3708 43.8096 29.5471C43.79 29.5489 43.7704 29.5506 43.7508 29.5527C41.2761 29.7998 39.3012 31.7806 39.1101 34.2041C38.8638 37.3307 41.5153 39.9184 44.7163 39.6721C47.2093 39.4804 49.2386 37.5277 49.4714 35.0947ZM63.5907 23.6584C63.5907 24.1219 63.2062 24.4977 62.7319 24.4977C62.2576 24.4977 61.873 24.1219 61.873 23.6584C61.873 17.7003 60.3931 16.4412 54.2255 16.4412V16.4411C53.7512 16.4411 53.3666 16.0654 53.3666 15.6019C53.3666 15.1384 53.7512 14.7627 54.2255 14.7627C55.4524 14.7627 58.1156 14.7627 59.3425 14.7627C63.5907 14.7627 63.5907 14.7627 63.5907 18.4988V23.6584H63.5907H63.5907ZM35.199 20.332C35.2034 20.2905 35.2078 20.2491 35.2099 20.2076C35.347 18.2853 36.1849 16.475 37.5692 15.1032L40.1767 12.5208C41.9285 10.7854 44.6027 11.0291 44.6027 8.32798C44.6027 6.74881 43.2925 5.46857 41.6764 5.46857C38.9347 5.46857 39.117 8.0983 37.3777 9.82234L34.7702 12.4047C33.3752 13.7869 31.5155 14.6081 29.5371 14.7845C29.5174 14.7862 29.4979 14.7879 29.4784 14.79C27.0037 15.0371 25.0288 17.0179 24.8377 19.4414C24.5913 22.568 27.2429 25.1557 30.4439 24.9095C32.9368 24.7177 34.9661 22.765 35.199 20.3321V20.332Z" fill="white"/>
</svg>
